<svg width="17px" height="13px" viewBox="-19 273 18 12" version="1.1" xmlns="http://www.w3.org/2000/svg" xmlns:xlink="http://www.w3.org/1999/xlink">
                                    <defs></defs>
                                    <path d="M-13.6425794,284.017981 L-14.1108854,284.486287 C-14.1733262,284.548728 -14.2451331,284.579949 -14.3263062,284.579949 C-14.4074792,284.579949 -14.4792861,284.548728 -14.5417269,284.486287 L-18.9063388,280.121676 C-18.9687796,280.059235 -19,279.987428 -19,279.906255 C-19,279.825082 -18.9687796,279.753275 -18.9063388,279.690834 L-14.5417269,275.326222 C-14.4792861,275.263781 -14.4074792,275.232561 -14.3263062,275.232561 C-14.2451331,275.232561 -14.1733262,275.263781 -14.1108854,275.326222 L-13.6425794,275.794528 C-13.5801386,275.856969 -13.5489182,275.928776 -13.5489182,276.009949 C-13.5489182,276.091122 -13.5801386,276.162929 -13.6425794,276.22537 L-17.3234645,279.906255 L-13.6425794,283.58714 C-13.5801386,283.649581 -13.5489182,283.721388 -13.5489182,283.802561 C-13.5489182,283.883734 -13.5801386,283.955541 -13.6425794,284.017981 Z M-8.10720257,274.024331 L-11.6007653,286.115992 C-11.6257416,286.197165 -11.6741332,286.258045 -11.7459401,286.298632 C-11.8177471,286.339218 -11.891115,286.347023 -11.966044,286.322047 L-12.5467434,286.162823 C-12.6279164,286.137847 -12.6887962,286.089455 -12.7293827,286.017648 C-12.7699693,285.945841 -12.7777744,285.869351 -12.752798,285.788178 L-9.25923532,273.696517 C-9.234259,273.615344 -9.18586738,273.554464 -9.11406046,273.513878 C-9.04225354,273.473291 -8.9688856,273.465486 -8.89395664,273.490463 L-8.31325721,273.649687 C-8.23208417,273.674663 -8.17120439,273.723055 -8.13061787,273.794862 C-8.09003135,273.866668 -8.08222625,273.943158 -8.10720257,274.024331 Z M-1.95366181,280.121676 L-6.31827368,284.486287 C-6.38071447,284.548728 -6.45252139,284.579949 -6.53369443,284.579949 C-6.61486747,284.579949 -6.68667439,284.548728 -6.74911519,284.486287 L-7.21742118,284.017981 C-7.27986198,283.955541 -7.31108238,283.883734 -7.31108238,283.802561 C-7.31108238,283.721388 -7.27986198,283.649581 -7.21742118,283.58714 L-3.53653607,279.906255 L-7.21742118,276.22537 C-7.27986198,276.162929 -7.31108238,276.091122 -7.31108238,276.009949 C-7.31108238,275.928776 -7.27986198,275.856969 -7.21742118,275.794528 L-6.74911519,275.326222 C-6.68667439,275.263781 -6.61486747,275.232561 -6.53369443,275.232561 C-6.45252139,275.232561 -6.38071447,275.263781 -6.31827368,275.326222 L-1.95366181,279.690834 C-1.89122101,279.753275 -1.86000061,279.825082 -1.86000061,279.906255 C-1.86000061,279.987428 -1.89122101,280.059235 -1.95366181,280.121676 Z" id="Shape" stroke="none" fill="#2D9CD0" fill-rule="evenodd"></path>
                                </svg>