<svg width="14px" height="13px" viewBox="128 128 14 13" version="1.1" xmlns="http://www.w3.org/2000/svg" xmlns:xlink="http://www.w3.org/1999/xlink">
                                    <defs></defs>
                                    <path d="M141.7,134.85 C141.7,136.342491 141.264442,137.684841 140.393327,138.877051 C139.522211,140.06926 138.396897,140.894292 137.017383,141.352148 C136.856836,141.381879 136.739399,141.361068 136.665071,141.289713 C136.590744,141.218359 136.553581,141.129166 136.553581,141.022135 L136.553581,139.140169 C136.553581,138.56339 136.39898,138.141211 136.089779,137.873633 C136.428711,137.837956 136.733453,137.78444 137.004004,137.713086 C137.274555,137.641732 137.554025,137.525781 137.842415,137.365234 C138.130805,137.204687 138.371625,137.006977 138.564876,136.772103 C138.758127,136.537229 138.915701,136.225054 139.037598,135.835579 C139.159494,135.446104 139.220443,134.998654 139.220443,134.493229 C139.220443,133.773741 138.985568,133.161285 138.51582,132.655859 C138.735829,132.114757 138.712044,131.508246 138.444466,130.836328 C138.277973,130.782812 138.037153,130.815516 137.722005,130.93444 C137.406858,131.053364 137.133333,131.18418 136.901432,131.326888 L136.5625,131.54095 C136.009505,131.38635 135.438672,131.309049 134.85,131.309049 C134.261328,131.309049 133.690495,131.38635 133.1375,131.54095 C133.042361,131.475542 132.916005,131.395269 132.758431,131.30013 C132.600857,131.204991 132.352604,131.090527 132.013672,130.956738 C131.67474,130.822949 131.419054,130.782812 131.246615,130.836328 C130.984983,131.508246 130.964171,132.114757 131.18418,132.655859 C130.714431,133.161285 130.479557,133.773741 130.479557,134.493229 C130.479557,134.998654 130.540506,135.444618 130.662402,135.83112 C130.784299,136.217621 130.940386,136.529796 131.130664,136.767643 C131.320942,137.00549 131.560276,137.204687 131.848665,137.365234 C132.137055,137.525781 132.416526,137.641732 132.687077,137.713086 C132.957628,137.78444 133.26237,137.837956 133.601302,137.873633 C133.363455,138.087695 133.217773,138.393923 133.164258,138.792318 C133.039388,138.851779 132.905599,138.896376 132.762891,138.926107 C132.620182,138.955838 132.450716,138.970703 132.254492,138.970703 C132.058268,138.970703 131.863531,138.906782 131.67028,138.778939 C131.477029,138.651096 131.312023,138.465278 131.17526,138.221484 C131.062283,138.031206 130.918088,137.876606 130.742676,137.757682 C130.567263,137.638759 130.420095,137.567404 130.301172,137.54362 L130.122786,137.516862 C129.997917,137.516862 129.911697,137.530241 129.864128,137.556999 C129.816558,137.583756 129.801693,137.617947 129.819531,137.65957 C129.83737,137.701193 129.864128,137.742817 129.899805,137.78444 C129.935482,137.826063 129.974132,137.86174 130.015755,137.891471 L130.07819,137.936068 C130.209006,137.995529 130.338335,138.108507 130.466178,138.275 C130.594021,138.441493 130.687674,138.593121 130.747135,138.729883 L130.836328,138.935026 C130.913628,139.160981 131.044444,139.343826 131.228776,139.483561 C131.413108,139.623296 131.612305,139.712489 131.826367,139.751139 C132.04043,139.789789 132.247059,139.810601 132.446256,139.813574 C132.645453,139.816547 132.81046,139.806141 132.941276,139.782357 L133.146419,139.74668 C133.146419,139.972634 133.147906,140.237239 133.150879,140.540495 C133.153852,140.84375 133.155338,141.004297 133.155338,141.022135 C133.155338,141.129166 133.116688,141.218359 133.039388,141.289713 C132.962088,141.361068 132.843164,141.381879 132.682617,141.352148 C131.303103,140.894292 130.177789,140.06926 129.306673,138.877051 C128.435558,137.684841 128,136.342491 128,134.85 C128,133.607248 128.306228,132.461122 128.918685,131.411621 C129.531141,130.36212 130.36212,129.531141 131.411621,128.918685 C132.461122,128.306228 133.607248,128 134.85,128 C136.092752,128 137.238878,128.306228 138.288379,128.918685 C139.33788,129.531141 140.168858,130.36212 140.781315,131.411621 C141.393772,132.461122 141.7,133.607248 141.7,134.85 Z" id="Shape" stroke="none" fill="#2D9CD0" fill-rule="evenodd"></path>
                                </svg>
